<?xml version="1.0" encoding="UTF-8"?>
<svg width="24" height="24" viewBox="0 0 24 24" fill="none" xmlns="http://www.w3.org/2000/svg">
  <path d="M12.9023 21.0225C17.3897 20.2733 20.8125 16.3731 20.8125 11.625C20.8125 6.31787 16.5571 2.0625 11.25 2.0625C5.94287 2.0625 1.6875 6.31787 1.6875 11.625C1.6875 16.3731 5.11025 20.2733 9.59775 21.0225L10.1895 20.5425L12 19.0425L13.8105 20.5425L14.4023 21.0225H12.9023Z" fill="#0866FF"/>
  <path d="M15.1875 14.625L15.7793 11.625H12.9375V9.5625C12.9375 8.68012 13.1809 8.0625 14.4023 8.0625H15.9375V5.35575C15.4006 5.28262 14.4023 5.1875 13.4039 5.1875C11.3086 5.1875 9.84375 6.50175 9.84375 9.28125V11.625H7.21875V14.625H9.84375V20.9438C10.3037 21.0394 10.7719 21.0938 11.25 21.0938C11.7281 21.0938 12.1963 21.0394 12.6562 20.9438V14.625H15.1875Z" fill="white"/>
</svg> 