<?xml version="1.0" encoding="utf-8"?>
<!-- Generator: Adobe Illustrator 25.2.1, SVG Export Plug-In . SVG Version: 6.00 Build 0)  -->
<svg version="1.1" id="Layer_1" xmlns="http://www.w3.org/2000/svg" xmlns:xlink="http://www.w3.org/1999/xlink" x="0px" y="0px"
	 viewBox="0 0 242.9 72.6" style="enable-background:new 0 0 242.9 72.6;" xml:space="preserve">
<style type="text/css">
	.st0{fill:#FFFF00;}
	.st1{fill-rule:evenodd;clip-rule:evenodd;fill:#FFFFFF;}
	.st2{fill:#FFFFFF;stroke:#FFFFFF;stroke-miterlimit:10;}
	.st3{fill:#FFFFFF;}
</style>
<g>
	<g>
		<circle class="st0" cx="83" cy="19.3" r="11.1"/>
		<path class="st1" d="M30.9,27.4c-0.4,6,4.1,11.1,10.1,11.4c6,0.4,11.1-4.1,11.4-10.1c0-0.2,0-0.4,0-0.7c0.1-6-4.5-10.9-10.4-11.2
			C36.1,16.7,31.1,21.5,30.9,27.4L30.9,27.4z M49.1,27.2c-0.1,4-3.5,7.3-7.6,7.1c-4-0.1-7.3-3.5-7.1-7.6c0.1-4,3.5-7.3,7.6-7.1
			C46,19.8,49.1,23.2,49.1,27.2L49.1,27.2z"/>
		<path class="st1" d="M40.4,26.4c0,0.8,0.7,1.5,1.5,1.5s1.5-0.7,1.5-1.5c0-0.8-0.7-1.5-1.5-1.5l0,0C41.1,25,40.4,25.6,40.4,26.4
			L40.4,26.4z"/>
		<path class="st1" d="M58.8,20.3c1.6-2.7,2.8-14.6,2.8-14.6s-3.3,12.7-6.3,12.5C53.4,18,49.8,10,49.8,10s0.3,5.5,1.6,8.7
			C53,22.4,56.3,24.8,58.8,20.3z"/>
		<path class="st1" d="M71.7,29.4c0-0.8-0.6-1.6-1.5-1.6c-0.4,0-0.9,0.2-1.2,0.5c-1.1,1.4-1.3,3.2-0.6,4.8c0.3,0.8,1,1.3,1.8,1.4
			h0.1c0.8,0,1.6-0.7,2.3-1.9c0.3-0.5,0.5-1.1,0.6-1.7v-0.1l-0.3-0.1v0.1c-0.3,0.6-1.3,2.5-2.2,2.5c-0.7,0-0.7-0.8-0.8-1
			C70.6,31.7,71.8,30.5,71.7,29.4z M70.4,30.9c-0.3,0.3-0.5,0.6-0.8,0.8c0-0.5,0.1-1.9,0.7-2.3C70.7,29,70.8,30.1,70.4,30.9z"/>
		<path class="st1" d="M66,34.3c0.5,0.6,1.1,1.2,1.7,1.6l0.1,0.1l0.5-0.2c-0.7-1-1.1-2.1-1.4-3.3l-0.7-7.8l-0.4,0.4L65.3,31
			c-0.2-0.1-0.4-0.2-0.6-0.1c-1.3,0.3-3,2.9-3.3,4.4c-0.1,1.1,0.6,2,1.6,2.2C63.6,37.3,64.8,36.8,66,34.3z M63.4,35.5
			c-1.4,0.8,0.4-3.1,1.2-3.5c0.5-0.3,0.6,0.5,0.5,1.1C64.7,34,64.1,34.8,63.4,35.5z"/>
		<path class="st1" d="M14.3,48.8c2.5-1.1,5.4-2.4,8.5-3.9c0.2-0.3,0.3-0.6,0.4-0.9c-2.9,0.2-5.9,0.7-8.7,1.4l0,0
			c0.5-6.9,4.3-11.4,7-13l-1.3-0.3C13,32.7,9.6,39.9,9.7,46.7v0.1c-1.5,0.5-2.9,1.1-4.2,1.8c0,0,0.1,1.1,0.1,1.8s-0.1,1.8-0.1,1.8
			s1.7-0.5,4.5-1.6c0.6,7,2,13.8,4.2,20.5h0.8C14.5,63.6,14.2,56.2,14.3,48.8z"/>
		<path class="st1" d="M30.7,56.6c0.3-2-9.4-8.6-10.5-5.9c-1.3,3.3-1.6,19.2-1.6,19.2l1-0.5l3.7-15.5c3.9,2.8,4.6,1.9,1,6.1L24,60.3
			c-0.2,0.1-0.2,0.4-0.1,0.5l0.9,2.5c0.1,0.2,0.3,0.4,0.5,0.5l7.6,1.5l-6.5-3.9C27.7,60,30.6,58.2,30.7,56.6z"/>
		<path class="st1" d="M57.9,42.8c-2.4,0.5-6.3,8.1-6.3,8.1l-2.2-6.1c0,4.4,0.3,9,0.8,13.4l1.7,0.8l5.9-11.4c0,0,0.4,2.7,2.9,8.6
			l0.5-0.3C60.9,51.6,61.4,42.1,57.9,42.8z"/>
		<path class="st1" d="M67.6,47.4c-1.6-4.8,6.1-9.6,6.1-9.6v-0.7c0,0-10.4,4.3-10.5,10.3c-0.1,4.8,4.3,6.2,8.8,5.1
			c2-0.5,4-1.4,5.7-2.7l-0.3-0.2C77.3,49.6,69.3,52.1,67.6,47.4z"/>
		<path class="st1" d="M80.8,45.5c-0.7-0.9-0.9-2.1-0.7-3.2c4.3-1.2,7.4-5.4,7-7.6c-0.4-1.6-2.7-2.7-6.1-0.2
			c-5.9,4.7-5.5,13.3-0.9,14.7c5.7,1.5,13.3-8.5,13.9-9.4v-0.6C93,40.6,83.4,48.6,80.8,45.5z M84.7,35.5c1.3-0.1-0.8,4.1-4.5,5
			C80.8,37.7,84,35.5,84.7,35.5z"/>
		<polygon class="st1" points="89.7,35.2 90.2,35.2 90.2,33.1 90.9,33.1 90.9,32.7 89,32.7 89,33.1 89.7,33.1 		"/>
		<path class="st1" d="M93.3,32.7l-0.6,1.9l0,0l-0.5-1.9h-0.7v2.6h0.4v-2l0,0l0.5,2h0.5l0.6-2l0,0v1.9H94v-2.6L93.3,32.7z"/>
		<path class="st1" d="M26.3,44.2c3.2-15.3,1.6-23.6,1.6-25.8c1.6-0.6,14.3-7.4,14.3-7.4c-4.2,0.5-20.1,4.4-31,9.9
			c5.1-0.4,11.2-1,13.2-1.4C24,27,24.4,38.1,26.3,44.2z"/>
		<path class="st1" d="M83.6,4.1c1,0,1.9-0.8,1.9-1.8s-0.8-1.9-1.8-1.9c-1,0-1.9,0.8-1.9,1.8l0,0C81.8,3.2,82.6,4,83.6,4.1z"/>
		<path class="st1" d="M60.7,30.3c2.5-5.2,7.4-22,7.8-24.7c0.1-1,6.9-1.6,8.5-0.7c0,0-4.3,2.5-5.4,3.8c-1,1.2-1.5,2.6,0.2,3.7
			c1.7,1.1,10.7,5.7,10.7,5.7v-0.8l-9.1-6.8c3.1-1.6,7.7-4.3,7.7-6V4.6l0,0V4.5c-0.2-1.1-1.7-2.9-4.3-3.5l0,0c-3-0.7-9.1-0.8-11.6,2
			c-0.6,0.7-1.6,6.4-5.4,27.8L60.7,30.3z"/>
		<path class="st1" d="M43.2,52.7L43.2,52.7c0,0.1-0.2,0.4-0.5,1.2c-0.3,1.1-0.9,2.2-1.5,3.2c-1.5,1.9-3.5,3.3-4.1,2.7
			c-1.5-1.4,2.8-7.9,6.6-12.3L42,47.4c-3.7,3.1-8.9,9.2-8.7,13.9c0,5.7,10.7,1.8,11.3-5.5c0.4,1.4,3.4,4.7,3.4,4.7S46.6,56,45.7,53
			c-0.2-0.6-0.9-1-1.5-0.8C43.5,52.2,43.3,52.4,43.2,52.7z"/>
	</g>
	<g>
		<path class="st2" d="M102.4,50.7l1.3-8.7c1.3,1.1,3.7,2.1,7.2,2.1c4.1,0,5.9-1.5,5.9-4.6c0-1.9-1.1-3.3-3.2-4.8l-3.1-2.6
			c-3.1-2-4.9-5.5-4.7-9.2c0-7,4.2-14.2,15.7-14.2c2.8-0.1,5.6,0.4,8.2,1.6l-1.2,8.5c-2-1-4.4-1.5-6.8-1.5c-4.6,0-6.4,1.8-6.4,4.6
			c0,1.5,0.8,2.7,2.5,4l3.4,2.8c3.3,2.5,5,5.3,5,9.3c0,4.8-2.5,14.3-15.9,14.3C107.5,52.4,104.9,51.9,102.4,50.7z"/>
		<path class="st2" d="M132.5,43.6c0-1.3,0.1-2.7,0.3-4l1.8-13h-4.4l1.1-8.3h5l1.1-8.3h8.3l-1.1,8.3h9.1l-1.2,8.3h-9l-1.8,12.9
			c-0.1,0.5-0.1,0.9-0.1,1.4c0,2.5,1.4,3.3,4.9,3.3c1.2,0,2.4-0.1,3.6-0.2l-1,7.6c-1.8,0.4-3.7,0.7-5.5,0.7
			C135.7,52.3,132.5,50.1,132.5,43.6z"/>
		<path class="st2" d="M153.8,39c0-11.2,4.9-21.3,16.8-21.3c7.1,0,12,3.7,12,12.6c0,11.4-5.4,22-16.9,22
			C158.9,52.3,153.8,48.4,153.8,39z M173.6,31.1c0-4-1.4-5.5-4.1-5.5c-5.5,0-6.7,8.7-6.7,13.1c0,4.2,1.3,6.1,3.9,6.1
			C172,44.7,173.6,35.3,173.6,31.1z"/>
		<path class="st2" d="M208.1,18.1l-1.4,10.2c-0.9-0.3-1.9-0.4-2.9-0.4c-4,0-6.8,2.4-7.4,5.8l-2.5,17.9h-9l4.7-33.4h8.4l-1.1,8.3
			c1.7-5.7,4.5-8.6,9.3-8.6C206.8,18,207.4,18,208.1,18.1z"/>
		<path class="st2" d="M234.5,28.8c0,1.4-0.1,2.9-0.3,4.4l-0.4,3.5H217c-0.1,0.4-0.1,0.8-0.1,1.1c0,4.7,2.9,6.9,8,6.9
			c2.6,0,5.1-0.4,7.5-1.4l-1.1,7.6c-2.7,1.2-5.5,1.7-8.4,1.6c-8.9,0-14.6-4.6-14.6-14.5c0-10.5,5.1-20.1,15.8-20.1
			C230.4,17.7,234.5,20.8,234.5,28.8z M217.8,29.9h9.1v-0.7c0-3.3-1.4-4.2-3.7-4.2C220.3,25,218.6,26.7,217.8,29.9L217.8,29.9z"/>
	</g>
	<g>
		<path id="XMLID_54_" class="st3" d="M145.9,63.5c1.5,0,2.6,1.2,2.6,3v3.3c0,0,0,0.1-0.1,0.1h-1.5c0,0-0.1,0-0.1-0.1v-3.3
			c0-0.7-0.3-1.4-1.3-1.4l0,0c-0.7,0-1.3,0.6-1.3,1.4v3.3c0,0,0,0.1-0.1,0.1h-1.5c0,0-0.1,0-0.1-0.1v-6.1c0,0,0-0.1,0.1-0.1h1.4
			c0,0,0.1,0,0.1,0.1l0,0.5C144.7,63.7,145.2,63.5,145.9,63.5 M168.9,68.7c0,0,0,0.1,0,0.1c0.9,0.9,1.9,1,2.7,1
			c1.2,0,2.1-0.5,2.4-1.2c0.1-0.2,0.2-0.5,0.2-0.8c0-1.6-1.4-1.9-2.6-2c-1-0.1-1-0.4-1-0.5c0-0.4,0.7-0.5,0.9-0.5
			c0.5,0,0.9,0.1,1.3,0.4c0,0,0.1,0,0.1,0l0.9-1c0,0,0-0.1,0-0.1c-0.6-0.5-1.3-0.7-2.3-0.7c-0.6,0-1.2,0.2-1.7,0.4
			c-0.6,0.3-0.9,0.9-0.9,1.5c0,1.1,0.9,1.8,2.5,1.9c0.9,0.1,1,0.3,1,0.5c0,0.3-0.4,0.5-0.9,0.5l0,0c-0.7,0-1.4-0.3-1.8-0.7
			c0,0-0.1,0-0.1,0L168.9,68.7z M153.7,67.7c0.3-0.3,0.4-0.7,0.4-1.1c0-0.8-0.5-1.6-1.6-1.6c-0.9,0-1.6,0.7-1.6,1.6
			c0,1,0.6,1.6,1.6,1.6C152.9,68.2,153.4,68,153.7,67.7 M154,63.6C154,63.6,154.1,63.5,154,63.6l1.6-0.1c0,0,0.1,0,0.1,0.1v6.1
			c0,0,0,0.1-0.1,0.1h-1.5c0,0-0.1,0-0.1-0.1l0-0.5c-0.5,0.5-1.1,0.5-1.7,0.5l-0.1,0c-0.9,0-1.7-0.3-2.2-0.8
			c-0.6-0.6-0.9-1.4-0.9-2.4c0-1.9,1.2-3.2,3.1-3.2l0,0c0.6,0,1.2,0.1,1.7,0.5L154,63.6z M135.5,62v-1.5c0-0.1,0-0.1-0.1-0.1h-5.4
			c-0.1,0-0.1,0-0.1,0.1v9.1c0,0.1,0,0.1,0.1,0.1h1.5c0.1,0,0.1,0,0.1-0.1V66c0-0.1,0-0.1,0.1-0.1h2.7c0.1,0,0.1,0,0.1-0.1v-1.5
			c0-0.1,0-0.1-0.1-0.1h-2.7c-0.1,0-0.1,0-0.1-0.1v-1.8c0-0.1,0-0.1,0.1-0.1h3.8C135.4,62.1,135.5,62.1,135.5,62 M167.4,67.9
			c0,0-0.1,0-0.1,0c-0.3,0.2-0.7,0.4-1,0.4c-0.9,0-1.6-0.7-1.6-1.6s0.6-1.6,1.6-1.6c0.4,0,0.7,0.1,1,0.4c0,0,0.1,0,0.1,0l1-1
			c0,0,0-0.1,0-0.1c-0.6-0.6-1.3-0.8-2.1-0.8c-2,0-3.2,1.3-3.2,3.2c0,2,1.3,3.2,3.2,3.2c0.9,0,1.5-0.3,2.1-0.8c0,0,0-0.1,0-0.1
			L167.4,67.9z M159.6,69.8C159.7,69.8,159.7,69.8,159.6,69.8l0.1-1.5c0,0,0-0.1-0.1-0.1c-0.2,0-0.6,0-0.7,0c-0.4,0-0.6-0.2-0.6-0.7
			v-2.3h1.4c0,0,0.1,0,0.1-0.1v-1.5c0,0,0-0.1-0.1-0.1h-1.4v-1.3c0,0,0-0.1-0.1-0.1h-1.5c0,0-0.1,0-0.1,0.1l0,5.3
			c0,1.4,0.8,2.2,2.2,2.2l0.3,0L159.6,69.8z M139.6,67.7c0.3-0.3,0.4-0.7,0.4-1.1c0-0.8-0.5-1.6-1.6-1.6c-0.9,0-1.6,0.7-1.6,1.6
			c0,1,0.6,1.6,1.6,1.6C138.8,68.2,139.3,68,139.6,67.7 M139.9,63.6C139.9,63.6,140,63.5,139.9,63.6l1.6-0.1c0,0,0.1,0,0.1,0.1v6.1
			c0,0,0,0.1-0.1,0.1H140c0,0-0.1,0-0.1-0.1l0-0.5c-0.5,0.5-1.1,0.5-1.7,0.5l-0.1,0c-0.9,0-1.7-0.3-2.2-0.8
			c-0.6-0.6-0.9-1.4-0.9-2.4c0-1.9,1.2-3.2,3.1-3.2l0,0c0.6,0,1.2,0.1,1.7,0.5L139.9,63.6z M160.6,69.8h1.5c0,0,0.1,0,0.1-0.1v-6.1
			c0,0,0-0.1-0.1-0.1h-1.5c0,0-0.1,0-0.1,0.1L160.6,69.8C160.5,69.8,160.6,69.8,160.6,69.8 M162.3,61.7c0-1.2-1.9-1.2-1.9,0
			C160.4,62.9,162.3,62.9,162.3,61.7"/>
		<path id="XMLID_46_" class="st3" d="M127.3,58.7l-1.6,2.4c0,0-0.1,0.1-0.2,0c-3.6-1.8-7.8,1.5-11.5,0.7c0,0-0.1,0-0.1-0.1
			c0,0-1.8-2.7-2.4-3.7c-0.1-0.1,0-0.3,0.2-0.2c0.3,0.1,1.7,0.4,2.8,0.5c5.6,0.3,8.6-3,12.6,0.1C127.3,58.6,127.3,58.6,127.3,58.7z
			 M111.8,58 M111.6,58.2 M111.8,58 M122.7,65.7C122.7,65.7,122.8,65.7,122.7,65.7l2-3c0,0,0-0.1,0-0.1c-2.7-0.9-5.3,0.9-9.2,1
			c-0.1,0-0.2,0.1-0.1,0.2l4.2,6.5c0.1,0.1,0.2,0,0.2-0.1l-0.9-4.1c0,0,0-0.1,0.1-0.1C119.2,66,121.6,65.1,122.7,65.7L122.7,65.7z"
			/>
		<path class="st3" d="M183.4,69.6h-5.9v-8h5.9v1.3h-4.6V65h4.4v1.2h-4.4v2.2h4.6V69.6z"/>
		<path class="st3" d="M188.2,63.9h1.4v0l-1.9,2.7l2,2.8v0h-1.4l-1.4-2.1l-1.4,2.1h-1.4v0l2-2.8l-1.9-2.7v0h1.4l1.3,2L188.2,63.9z"
			/>
		<path class="st3" d="M190.7,72.2v-8.3h1.1l0.1,0.9c0.2-0.3,0.5-0.6,0.9-0.8c0.4-0.2,0.7-0.3,1.1-0.3c0.4,0,0.8,0.1,1.2,0.2
			c0.4,0.1,0.7,0.4,0.9,0.6c0.3,0.3,0.4,0.6,0.6,0.9c0.1,0.4,0.2,0.8,0.2,1.2c0,0.4-0.1,0.8-0.2,1.2c-0.1,0.4-0.3,0.7-0.6,0.9
			c-0.2,0.3-0.5,0.5-0.9,0.6c-0.4,0.1-0.8,0.2-1.2,0.2c-0.2,0-0.4,0-0.5,0c-0.2,0-0.4-0.1-0.6-0.2c-0.2-0.1-0.3-0.2-0.5-0.3
			c-0.2-0.1-0.3-0.3-0.4-0.4v3.4H190.7z M193.8,68.6c0.3,0,0.5,0,0.7-0.1c0.2-0.1,0.4-0.2,0.6-0.4c0.2-0.2,0.3-0.4,0.4-0.6
			c0.1-0.2,0.1-0.5,0.1-0.7c0-0.5-0.2-1-0.5-1.3c-0.3-0.3-0.8-0.5-1.3-0.5c-0.3,0-0.5,0-0.7,0.1c-0.2,0.1-0.4,0.2-0.6,0.4
			c-0.2,0.2-0.3,0.4-0.4,0.6c-0.1,0.2-0.1,0.5-0.1,0.7c0,0.3,0,0.5,0.1,0.7c0.1,0.2,0.2,0.4,0.4,0.6c0.2,0.2,0.3,0.3,0.6,0.4
			C193.3,68.5,193.5,68.6,193.8,68.6z"/>
		<path class="st3" d="M198.9,67.2c0.1,0.4,0.2,0.8,0.6,1c0.3,0.3,0.8,0.4,1.3,0.4c0.3,0,0.6-0.1,0.9-0.2c0.3-0.1,0.6-0.3,0.7-0.5
			l0.8,0.7c-0.1,0.2-0.3,0.3-0.5,0.4s-0.4,0.2-0.6,0.3c-0.2,0.1-0.4,0.1-0.7,0.2c-0.2,0-0.5,0.1-0.7,0.1c-0.5,0-0.9-0.1-1.3-0.2
			c-0.4-0.1-0.7-0.3-1-0.6c-0.3-0.3-0.5-0.6-0.6-0.9c-0.1-0.4-0.2-0.8-0.2-1.2c0-0.4,0.1-0.8,0.2-1.2c0.1-0.4,0.3-0.7,0.6-0.9
			c0.3-0.3,0.6-0.5,0.9-0.6c0.4-0.1,0.8-0.2,1.2-0.2c0.5,0,0.9,0.1,1.2,0.2c0.4,0.1,0.7,0.4,0.9,0.6c0.3,0.3,0.4,0.6,0.6,1.1
			c0.1,0.4,0.2,0.9,0.1,1.5H198.9z M202.3,66.2c0-0.5-0.2-0.8-0.5-1c-0.3-0.2-0.7-0.3-1.2-0.3c-0.4,0-0.8,0.1-1.1,0.3
			c-0.3,0.2-0.5,0.6-0.6,1H202.3z"/>
		<path class="st3" d="M205.8,63.9l0.1,0.7c0.2-0.4,0.5-0.6,0.8-0.7c0.3-0.1,0.6-0.2,0.9-0.2c0.3,0,0.5,0,0.8,0.1
			c0.2,0.1,0.5,0.2,0.6,0.4l-0.5,1c-0.1-0.1-0.3-0.2-0.4-0.3c-0.1-0.1-0.3-0.1-0.6-0.1c-0.2,0-0.4,0-0.6,0.1
			c-0.2,0.1-0.3,0.2-0.5,0.3c-0.1,0.1-0.2,0.3-0.3,0.5c-0.1,0.2-0.1,0.4-0.1,0.7v3.1h-1.2v-5.7H205.8z"/>
		<path class="st3" d="M209.6,62.3c0-0.2,0.1-0.4,0.2-0.5c0.2-0.1,0.3-0.2,0.5-0.2c0.2,0,0.4,0.1,0.5,0.2c0.2,0.1,0.2,0.3,0.2,0.5
			c0,0.2-0.1,0.4-0.2,0.6c-0.2,0.1-0.3,0.2-0.5,0.2c-0.2,0-0.4-0.1-0.5-0.2C209.7,62.7,209.6,62.5,209.6,62.3z M210.9,63.9v5.7h-1.2
			v-5.7H210.9z"/>
		<path class="st3" d="M213.4,67.2c0.1,0.4,0.2,0.8,0.6,1c0.3,0.3,0.8,0.4,1.3,0.4c0.3,0,0.6-0.1,0.9-0.2c0.3-0.1,0.6-0.3,0.7-0.5
			l0.8,0.7c-0.1,0.2-0.3,0.3-0.5,0.4s-0.4,0.2-0.6,0.3c-0.2,0.1-0.4,0.1-0.7,0.2c-0.2,0-0.5,0.1-0.7,0.1c-0.5,0-0.9-0.1-1.3-0.2
			c-0.4-0.1-0.7-0.3-1-0.6c-0.3-0.3-0.5-0.6-0.6-0.9c-0.1-0.4-0.2-0.8-0.2-1.2c0-0.4,0.1-0.8,0.2-1.2c0.1-0.4,0.3-0.7,0.6-0.9
			c0.3-0.3,0.6-0.5,0.9-0.6c0.4-0.1,0.8-0.2,1.2-0.2c0.5,0,0.9,0.1,1.2,0.2c0.4,0.1,0.7,0.4,0.9,0.6c0.3,0.3,0.4,0.6,0.6,1.1
			c0.1,0.4,0.2,0.9,0.1,1.5H213.4z M216.9,66.2c0-0.5-0.2-0.8-0.5-1c-0.3-0.2-0.7-0.3-1.2-0.3c-0.4,0-0.8,0.1-1.1,0.3
			c-0.3,0.2-0.5,0.6-0.6,1H216.9z"/>
		<path class="st3" d="M223.5,69.6v-3c0-0.5-0.1-0.9-0.4-1.2c-0.3-0.3-0.6-0.5-1.1-0.5c-0.2,0-0.5,0-0.6,0.1
			c-0.2,0.1-0.4,0.2-0.5,0.4c-0.1,0.2-0.2,0.3-0.3,0.6c-0.1,0.2-0.1,0.4-0.1,0.7v3h-1.2v-5.7h1.1l0.1,0.8c0.5-0.6,1.2-0.9,1.9-0.9
			c0.3,0,0.7,0.1,1,0.2c0.3,0.1,0.6,0.3,0.8,0.5c0.2,0.2,0.4,0.5,0.5,0.9c0.1,0.3,0.2,0.7,0.2,1.2v3H223.5z"/>
		<path class="st3" d="M231,68.9c-0.3,0.3-0.7,0.5-1,0.7c-0.3,0.1-0.7,0.2-1.1,0.2c-0.4,0-0.8-0.1-1.2-0.2c-0.4-0.1-0.7-0.3-1-0.6
			s-0.5-0.6-0.6-0.9c-0.2-0.4-0.2-0.8-0.2-1.3s0.1-0.9,0.2-1.3c0.2-0.4,0.4-0.7,0.6-0.9c0.3-0.2,0.6-0.4,0.9-0.6
			c0.4-0.1,0.7-0.2,1.2-0.2c0.4,0,0.8,0.1,1.1,0.2c0.3,0.1,0.7,0.3,1,0.6l-0.7,0.8c-0.2-0.2-0.4-0.3-0.6-0.4
			c-0.2-0.1-0.4-0.1-0.7-0.1c-0.3,0-0.5,0-0.7,0.1c-0.2,0.1-0.4,0.2-0.6,0.4c-0.2,0.2-0.3,0.4-0.4,0.6c-0.1,0.2-0.1,0.5-0.1,0.8
			c0,0.3,0,0.6,0.1,0.8c0.1,0.2,0.2,0.4,0.4,0.6c0.2,0.2,0.4,0.3,0.6,0.4c0.2,0.1,0.4,0.1,0.7,0.1c0.2,0,0.5,0,0.7-0.1
			c0.2-0.1,0.4-0.2,0.6-0.4L231,68.9z"/>
		<path class="st3" d="M232.8,67.2c0.1,0.4,0.2,0.8,0.6,1c0.3,0.3,0.8,0.4,1.3,0.4c0.3,0,0.6-0.1,0.9-0.2c0.3-0.1,0.6-0.3,0.7-0.5
			l0.8,0.7c-0.1,0.2-0.3,0.3-0.5,0.4c-0.2,0.1-0.4,0.2-0.6,0.3c-0.2,0.1-0.4,0.1-0.7,0.2c-0.2,0-0.5,0.1-0.7,0.1
			c-0.5,0-0.9-0.1-1.3-0.2c-0.4-0.1-0.7-0.3-1-0.6c-0.3-0.3-0.5-0.6-0.6-0.9c-0.1-0.4-0.2-0.8-0.2-1.2c0-0.4,0.1-0.8,0.2-1.2
			c0.1-0.4,0.3-0.7,0.6-0.9c0.3-0.3,0.6-0.5,0.9-0.6c0.4-0.1,0.8-0.2,1.2-0.2c0.5,0,0.9,0.1,1.2,0.2c0.4,0.1,0.7,0.4,0.9,0.6
			c0.3,0.3,0.4,0.6,0.6,1.1c0.1,0.4,0.2,0.9,0.1,1.5H232.8z M236.2,66.2c0-0.5-0.2-0.8-0.5-1c-0.3-0.2-0.7-0.3-1.2-0.3
			c-0.4,0-0.8,0.1-1.1,0.3c-0.3,0.2-0.5,0.6-0.6,1H236.2z"/>
		<path class="st3" d="M108.9,68.1h-4.3l-0.8,1.7h-1.4l3.6-8h1.4l3.6,8h-1.4L108.9,68.1z M106.7,63.1l-1.7,3.8h3.4L106.7,63.1z"/>
	</g>
</g>
</svg>
